<svg width="46" height="47" viewBox="0 0 46 47" fill="none" xmlns="http://www.w3.org/2000/svg">
<path d="M23.1949 46.6106C35.7937 46.6106 46.007 36.3972 46.007 23.7984C46.007 11.1997 35.7937 0.986328 23.1949 0.986328C10.5961 0.986328 0.382812 11.1997 0.382812 23.7984C0.382812 36.3972 10.5961 46.6106 23.1949 46.6106Z" fill="#B3B29E"/>
<path d="M23.1941 44.8452C34.8173 44.8452 44.2398 35.4228 44.2398 23.7996C44.2398 12.1764 34.8173 2.75391 23.1941 2.75391C11.5709 2.75391 2.14844 12.1764 2.14844 23.7996C2.14844 35.4228 11.5709 44.8452 23.1941 44.8452Z" fill="#7B3900"/>
<path d="M23.0941 14.1941C23.7566 14.1941 24.2937 13.657 24.2937 12.9945C24.2937 12.332 23.7566 11.7949 23.0941 11.7949C22.4316 11.7949 21.8945 12.332 21.8945 12.9945C21.8945 13.657 22.4316 14.1941 23.0941 14.1941Z" fill="#FFA2C4"/>
<path d="M40.5261 28.0376C40.5261 30.2679 32.9192 32.0773 23.5344 32.0773C18.6244 32.0773 14.1982 31.582 11.0977 30.7889C14.0494 31.3071 17.7483 31.6135 21.7679 31.6135C31.4075 31.6135 39.2234 29.8442 39.2234 27.6597C39.2234 26.5976 37.3654 25.627 34.3449 24.917C38.1183 25.6585 40.5261 26.7808 40.5261 28.0376Z" fill="#FFFFFD"/>
<path d="M11.9248 28.5294C11.9391 28.2403 11.9133 27.9482 11.8389 27.6648C11.5955 26.7143 10.8511 26.0673 9.8491 25.7008C9.73745 25.6579 9.62007 25.6207 9.50555 25.5863C9.45115 25.5691 9.3853 25.5519 9.33091 25.5376C8.74972 25.3973 8.17427 25.1855 7.6847 24.8562C7.40127 24.6644 7.1436 24.4354 6.9661 24.1634C6.89452 24.0489 6.8344 23.9286 6.80291 23.7998C6.34769 24.1348 6.10435 24.6329 6.01846 25.1569C5.9612 25.4746 5.94402 25.801 5.99555 26.1274C5.99841 26.1474 6.00128 26.1761 6.007 26.1961C6.01845 26.2505 6.03277 26.3135 6.04708 26.365C6.05567 26.3908 6.06426 26.4251 6.07285 26.448L6.07858 26.4652L6.10148 26.5339C6.24749 26.9519 6.49371 27.347 6.81722 27.682C7.8937 28.79 9.77467 29.2996 11.2691 28.8644C11.2691 28.8644 11.2691 28.8644 11.272 28.8644C11.4753 28.8014 11.6614 28.7127 11.8303 28.5981L11.9248 28.5323V28.5294Z" fill="#7CF047"/>
<path d="M11.7809 29.4848C11.6521 29.3073 11.4975 29.1469 11.32 29.0152C10.7245 28.5686 9.97724 28.54 9.20997 28.8005C9.12408 28.8292 9.03533 28.8606 8.9523 28.895C8.91222 28.9122 8.86355 28.9322 8.82633 28.9494C8.41693 29.1412 7.97603 29.2901 7.52941 29.3273C7.27174 29.3502 7.01121 29.3359 6.77645 29.2586C6.67911 29.2242 6.58463 29.1813 6.50733 29.1212C6.39854 29.5363 6.49015 29.9428 6.6877 30.295C6.80508 30.5097 6.94823 30.7101 7.13432 30.879C7.14577 30.8905 7.16009 30.9048 7.1744 30.9134C7.20589 30.9392 7.24311 30.9706 7.27747 30.9964C7.29465 31.0079 7.31469 31.0222 7.33186 31.0336L7.34331 31.0422L7.38912 31.0709C7.67256 31.2484 8.00466 31.3657 8.3568 31.4087C9.51917 31.5518 10.8705 30.9621 11.549 29.9944C11.6378 29.8627 11.7065 29.7195 11.7523 29.5707L11.7781 29.4876L11.7809 29.4848Z" fill="#F16727"/>
<path d="M32.2656 23.7606C32.2656 23.7606 31.7188 16.6061 28.7613 16.0535C26.3106 15.5954 26.0415 22.1144 26.0415 22.1144H25.844C25.844 22.1144 26.3078 15.667 23.0927 15.8388C19.8775 15.667 20.3414 22.1144 20.3414 22.1144H20.1438C20.1438 22.1144 19.8747 15.5954 17.424 16.0535C14.4665 16.6061 13.9197 23.7606 13.9197 23.7606C13.9197 23.7606 13.6993 15.1431 18.2084 14.9398C20.1867 14.8196 20.7737 16.314 20.7737 16.314C20.7737 16.314 21.5982 14.894 23.0927 14.8711C24.5871 14.894 25.4117 16.314 25.4117 16.314C25.4117 16.314 25.9986 14.8196 27.9769 14.9398C32.4861 15.1431 32.2656 23.7606 32.2656 23.7606Z" fill="#FFFFFD"/>
</svg>
